<svg viewBox="0 0 240 240" xmlns="http://www.w3.org/2000/svg">
  <g stroke="#14110a" stroke-width="6" stroke-linejoin="round">
    <!-- fog blob -->
    <path d="M60 150 q-26 -4 -18 -30 q-18 -18 6 -34 q-4 -28 28 -26 q14 -22 40 -10 q22 -16 42 4 q28 -2 24 28 q22 14 4 36 q10 26 -18 30 q-6 22 -34 14 q-20 14 -42 0 q-24 8 -32 -12 Z" fill="#8e7bb0"/>
    <!-- googly eyes -->
    <circle cx="100" cy="104" r="18" fill="#fff"/>
    <circle cx="142" cy="104" r="18" fill="#fff"/>
    <circle cx="104" cy="110" r="8" fill="#14110a" stroke-width="0"/>
    <circle cx="146" cy="108" r="8" fill="#14110a" stroke-width="0"/>
    <!-- lazy mouth -->
    <path d="M96 138 q24 -10 48 4" fill="none" stroke="#14110a" stroke-width="5" stroke-linecap="round"/>
  </g>
</svg>
