<svg viewBox="0 0 240 240" xmlns="http://www.w3.org/2000/svg">
  <defs><linearGradient id="wg" x1="0" y1="0" x2="0" y2="1">
    <stop offset="0" stop-color="#9b86ff"/><stop offset="1" stop-color="#6c4ff0"/></linearGradient></defs>
  <g stroke="#14110a" stroke-width="6" stroke-linejoin="round">
    <!-- antenna -->
    <line x1="120" y1="56" x2="120" y2="30" stroke-linecap="round"/>
    <circle cx="120" cy="24" r="10" fill="#2ee6d6"/>
    <!-- head -->
    <rect x="56" y="56" width="128" height="112" rx="30" fill="url(#wg)"/>
    <!-- ears -->
    <rect x="40" y="92" width="18" height="40" rx="8" fill="#6c4ff0"/>
    <rect x="182" y="92" width="18" height="40" rx="8" fill="#6c4ff0"/>
    <!-- screen face -->
    <rect x="72" y="74" width="96" height="78" rx="20" fill="#0e1430"/>
    <!-- eyes -->
    <circle cx="100" cy="108" r="14" fill="#2ee6d6" stroke-width="0"/>
    <circle cx="140" cy="108" r="14" fill="#2ee6d6" stroke-width="0"/>
    <circle cx="103" cy="105" r="5" fill="#0e1430" stroke-width="0"/>
    <circle cx="143" cy="105" r="5" fill="#0e1430" stroke-width="0"/>
    <!-- smile -->
    <path d="M98 132 q22 18 44 0" fill="none" stroke="#2ee6d6" stroke-width="6" stroke-linecap="round"/>
    <!-- body collar -->
    <path d="M84 168 q36 26 72 0 l8 24 q-44 22 -88 0 z" fill="#ff6ba6"/>
  </g>
</svg>
